PathFileType	4	(X/Y/Z)	C:\Users\italobelli\Desktop\GitHub\PTbot_officialCBL\Personal_Results\FLX02_noisy1.trc
DataRate	CameraRate	NumFrames	NumMarkers	Units	OrigDataRate	OrigDataStartFrame	OrigNumFrames
106.125000	106.125000	17	9	m	106.125000	1	850
Frame#	Time		gu		centelbow		EpL		centpxt8		centijc7		ij		ts		aa		ai
			X1	Y1	Z1	X2	Y2	Z2	X3	Y3	Z3	X4	Y4	Z4	X5	Y5	Z5	X6	Y6	Z6	X7	Y7	Z7	X8	Y8	Z8	X9	Y9	Z9

1	0	-0.07018	-0.0136	0.16989	-0.11273	-0.25974	0.18093	-0.093553	-0.25774	0.20676	-0.046816	-0.15316	-0.008669	-0.046816	0.031938	-0.008669	0	0	0	-0.13294	0.024819	0.054576	-0.10425	0.022136	0.17031	-0.14479	-0.087931	0.060272
2	0.0094229	-0.070204	-0.013561	0.16989	-0.11324	-0.25974	0.18078	-0.094067	-0.25778	0.20662	-0.046816	-0.15316	-0.008669	-0.046816	0.031938	-0.008669	0	0	0	-0.1329	0.024825	0.054549	-0.10426	0.022157	0.1703	-0.14475	-0.087925	0.060253
3	0.018846	-0.070228	-0.013524	0.16989	-0.11374	-0.25974	0.18063	-0.094565	-0.25782	0.20648	-0.046816	-0.15316	-0.008669	-0.046816	0.031938	-0.008669	0	0	0	-0.13287	0.02483	0.054523	-0.10428	0.022176	0.17028	-0.14471	-0.087919	0.060234
4	0.028269	-0.070252	-0.01349	0.16989	-0.11422	-0.25974	0.18048	-0.095049	-0.25786	0.20634	-0.046816	-0.15316	-0.008669	-0.046816	0.031938	-0.008669	0	0	0	-0.13283	0.024835	0.054497	-0.10429	0.022194	0.17027	-0.14468	-0.087914	0.060216
5	0.037691	-0.070275	-0.013458	0.16989	-0.11469	-0.25975	0.18033	-0.095517	-0.2579	0.2062	-0.046816	-0.15316	-0.008669	-0.046816	0.031938	-0.008669	0	0	0	-0.13279	0.02484	0.054472	-0.10431	0.022211	0.17026	-0.14464	-0.087909	0.060199
6	0.047114	-0.070298	-0.013428	0.16989	-0.11514	-0.25975	0.18019	-0.095971	-0.25793	0.20606	-0.046816	-0.15316	-0.008669	-0.046816	0.031938	-0.008669	0	0	0	-0.13276	0.024843	0.054448	-0.10432	0.022227	0.17025	-0.14461	-0.087905	0.060182
7	0.056537	-0.07032	-0.013401	0.16988	-0.11557	-0.25975	0.18004	-0.096409	-0.25796	0.20592	-0.046816	-0.15316	-0.008669	-0.046816	0.031938	-0.008669	0	0	0	-0.13273	0.024847	0.054424	-0.10433	0.022242	0.17023	-0.14458	-0.087901	0.060165
8	0.06596	-0.070342	-0.013376	0.16988	-0.11599	-0.25976	0.1799	-0.096833	-0.25799	0.20579	-0.046816	-0.15316	-0.008669	-0.046816	0.031938	-0.008669	0	0	0	-0.1327	0.02485	0.054401	-0.10434	0.022255	0.17022	-0.14455	-0.087898	0.060149
9	0.075383	-0.070363	-0.013353	0.16988	-0.1164	-0.25976	0.17976	-0.097241	-0.25802	0.20566	-0.046816	-0.15316	-0.008669	-0.046816	0.031938	-0.008669	0	0	0	-0.13266	0.024853	0.054378	-0.10436	0.022268	0.17021	-0.14452	-0.087895	0.060134
10	0.084806	-0.070384	-0.013332	0.16987	-0.11679	-0.25977	0.17962	-0.097635	-0.25805	0.20552	-0.046816	-0.15316	-0.008669	-0.046816	0.031938	-0.008669	0	0	0	-0.13264	0.024855	0.054356	-0.10437	0.022279	0.17019	-0.1445	-0.087892	0.060118
11	0.094229	-0.070404	-0.013314	0.16987	-0.11716	-0.25978	0.17949	-0.098014	-0.25808	0.2054	-0.046816	-0.15316	-0.008669	-0.046816	0.031938	-0.008669	0	0	0	-0.13261	0.024857	0.054334	-0.10438	0.02229	0.17018	-0.14447	-0.08789	0.060104
12	0.10365	-0.070424	-0.013297	0.16987	-0.11752	-0.25978	0.17935	-0.098378	-0.2581	0.20527	-0.046816	-0.15316	-0.008669	-0.046816	0.031938	-0.008669	0	0	0	-0.13258	0.024858	0.054314	-0.10439	0.022299	0.17017	-0.14445	-0.087888	0.060089
13	0.11307	-0.070444	-0.013283	0.16986	-0.11786	-0.25979	0.17922	-0.098727	-0.25812	0.20514	-0.046816	-0.15316	-0.008669	-0.046816	0.031938	-0.008669	0	0	0	-0.13255	0.024859	0.054294	-0.1044	0.022307	0.17016	-0.14443	-0.087886	0.060075
14	0.1225	-0.070463	-0.01327	0.16986	-0.11819	-0.2598	0.17909	-0.099062	-0.25814	0.20502	-0.046816	-0.15316	-0.008669	-0.046816	0.031938	-0.008669	0	0	0	-0.13253	0.02486	0.054274	-0.10441	0.022315	0.17014	-0.1444	-0.087885	0.060061
15	0.13192	-0.070482	-0.01326	0.16985	-0.1185	-0.25981	0.17897	-0.099381	-0.25816	0.2049	-0.046816	-0.15316	-0.008669	-0.046816	0.031938	-0.008669	0	0	0	-0.1325	0.02486	0.054255	-0.10442	0.022321	0.17013	-0.14439	-0.087884	0.060048
16	0.14134	-0.0705	-0.013252	0.16984	-0.1188	-0.25982	0.17884	-0.099686	-0.25818	0.20478	-0.046816	-0.15316	-0.008669	-0.046816	0.031938	-0.008669	0	0	0	-0.13248	0.02486	0.054237	-0.10443	0.022326	0.17012	-0.14437	-0.087884	0.060035
17	0.15077	-0.070518	-0.013245	0.16984	-0.11908	-0.25983	0.17872	-0.099977	-0.2582	0.20467	-0.046816	-0.15316	-0.008669	-0.046816	0.031938	-0.008669	0	0	0	-0.13246	0.02486	0.054219	-0.10444	0.022331	0.17011	-0.14435	-0.087883	0.060023
